<?xml version="1.0" encoding="UTF-8"?>
<svg xmlns="http://www.w3.org/2000/svg" viewBox="0 0 328.83 183.74">
  <defs>
    <style>
      
      .cls-1 {
        stroke-dasharray: 1.02 4.07;
      }

      .cls-1, .cls-2, .cls-3, .cls-4, .cls-5, .cls-6, .cls-7, .cls-8, .cls-9, .cls-10, .cls-11, .cls-12, .cls-13, .cls-14, .cls-15, .cls-16 {
        stroke-linecap: round;
        stroke-linejoin: round;
      }

      .cls-1, .cls-2, .cls-3, .cls-4, .cls-5, .cls-8, .cls-9, .cls-10, .cls-11, .cls-12, .cls-13, .cls-14, .cls-15, .cls-16 {
        fill: none;
      }

      .cls-1, .cls-2, .cls-3, .cls-4, .cls-5, .cls-11, .cls-12, .cls-15 {
        stroke: #808285;
      }

      .cls-2 {
        stroke-dasharray: 1.02 4.06;
      }

      .cls-3, .cls-8 {
        stroke-dasharray: 1 4;
      }

      .cls-4 {
        stroke-dasharray: .86 3.46;
      }

      .cls-17 {
        fill: #ed1c24;
        stroke: #ef929d;
        stroke-miterlimit: 10;
        display:none;
      }

      .cls-5 {
        stroke-dasharray: 1.01 4.04;
      }

      .cls-6, .cls-7 {
        fill:none;
      }

      .cls-6, .cls-7, .cls-10, .cls-16 {
        stroke: #231f20;
      }

      .cls-7, .cls-16 {
        stroke-width: 2px;
      }

      .cls-8, .cls-13 {
        stroke:rgba(0, 0, 0, 0.32);
      }

      .cls-9 {
        stroke: #bcbec0;
      }

      .cls-18 {
        opacity: .27;
      }

      .cls-11 {
        stroke-dasharray: .97 3.9;
      }

      .cls-14 {
        stroke: #a7a9ac;
      }

      .cls-15 {
        stroke-dasharray: 1 3.99;
      }
    </style>
  </defs>
  <g id="Floor0" style="display:none;">
    <g>
      <polyline class="cls-8" points="62.69 112.45 62.69 183.24 328.33 183.24 328.33 112.45"/>
      <polyline class="cls-13" points="258.27 112.38 258.27 129.8 231.7 129.8 231.7 112.45"/>
      <path class="cls-13" d="M233.78,129.88h22.17v3.26c0,3.17-2.57,5.75-5.75,5.75h-10.68c-3.17,0-5.75-2.57-5.75-5.75v-3.26h0Z"/>
      <path class="cls-13" d="M236.34,129.88h16.89v2.63c0,2.04-1.66,3.7-3.7,3.7h-9.48c-2.04,0-3.7-1.66-3.7-3.7v-2.63h0Z"/>
      <path class="cls-13" d="M238.88,129.88h11.68v2.32c0,.76-.62,1.38-1.38,1.38h-8.92c-.76,0-1.38-.62-1.38-1.38v-2.32h0Z"/>
      <circle class="cls-8" cx="286.53" cy="143.89" r="7.06"/>
      <path class="cls-8" d="M255.94,183.24s-6.04-16.95,5.93-22.92,21.77,3.48,31.79-3.48c10.02-6.96,10.02-15.17,7.28-20.26-2.74-5.09-9.23-6.79-9.23-6.79h-60.02l-68.27.08-.06-17.43"/>
      <path class="cls-8" d="M214.66,183.24s7.43-6.01,2.22-7.5-12.92-7.46-25.97-4.48-40.86,7.46-54.31,7.46-22.24,4.51-22.24,4.51"/>
      <path class="cls-8" d="M202.48,152.52s-7.06-4.69-17.68-4.67-15.27-.64-19.59,4.67c-4.32,5.31.04,9.96,5.83,9.96s10.01-3.98,15.87-2.66c5.86,1.33,15.47,3.32,17.31-.66s-1.74-6.64-1.74-6.64Z"/>
      <path class="cls-8" d="M113.44,141.84s-11.29,3.73-6.31,12.7,7.64,11.95,16.93,12.95,12.62-11.29,17.26-9.3,11.62-1.35,13.28-3.5-.05-10.47-5.5-10.79-14.59,7.33-20.65,5-8.05-8.8-15.02-7.06Z"/>
      <path class="cls-8" d="M110.27,112.45s6.23,21.08,18.8,19.29,12.45-9.1,19.15-8.1c6.7,1,6.31,13.21,10.16,12.58s12.98-.08,18.71-6.33"/>
      <rect class="cls-8" x=".5" y="8.83" width="62.19" height="174.2"/>
      <line class="cls-9" x1="52.9" y1="12.9" x2="62.69" y2="12.9"/>
      <line class="cls-9" x1="52.9" y1="16.9" x2="62.69" y2="16.9"/>
      <line class="cls-9" x1="52.9" y1="20.9" x2="62.69" y2="20.9"/>
      <line class="cls-9" x1="52.9" y1="24.9" x2="62.69" y2="24.9"/>
      <line class="cls-9" x1="52.9" y1="28.9" x2="62.69" y2="28.9"/>
      <line class="cls-9" x1="52.9" y1="32.9" x2="62.69" y2="32.9"/>
      <line class="cls-9" x1="52.9" y1="36.9" x2="62.69" y2="36.9"/>
      <line class="cls-9" x1="52.9" y1="40.9" x2="62.69" y2="40.9"/>
      <line class="cls-9" x1="52.9" y1="44.9" x2="62.69" y2="44.9"/>
      <line class="cls-9" x1="52.9" y1="48.9" x2="62.69" y2="48.9"/>
      <line class="cls-9" x1="52.9" y1="52.9" x2="62.69" y2="52.9"/>
      <line class="cls-9" x1="52.9" y1="56.9" x2="62.69" y2="56.9"/>
      <line class="cls-9" x1="190.91" y1="68.51" x2="190.91" y2="89.01"/>
      <line class="cls-9" x1="186.91" y1="68.51" x2="186.91" y2="89.01"/>
      <line class="cls-9" x1="182.91" y1="68.51" x2="182.91" y2="89.01"/>
      <line class="cls-9" x1="178.91" y1="68.51" x2="178.91" y2="89.01"/>
      <line class="cls-9" x1="174.91" y1="68.51" x2="174.91" y2="89.01"/>
      <polyline class="cls-10" points="113.47 8.83 62.69 8.83 62.69 112.23 67.49 112.23"/>
      <line class="cls-10" x1="217.49" y1="8.83" x2="142.11" y2="8.83"/>
      <polyline class="cls-10" points="286.32 112.23 286.32 8.83 232.7 8.83"/>
      <line class="cls-6" x1="203.91" y1="9.53" x2="203.91" y2="57.96"/>
      <line class="cls-6" x1="245.7" y1="22.69" x2="245.7" y2="67.95"/>
      <line class="cls-6" x1="245.7" y1="8.83" x2="245.7" y2="15.08"/>
      <line class="cls-6" x1="171.04" y1="52.61" x2="171.04" y2="57.96"/>
      <line class="cls-6" x1="171.04" y1="65.58" x2="171.04" y2="89.01"/>
      <line class="cls-6" x1="204.21" y1="67.95" x2="221.29" y2="67.95"/>
      <line class="cls-6" x1="228.9" y1="67.95" x2="236.43" y2="67.95"/>
      <line class="cls-6" x1="244.06" y1="67.95" x2="245.7" y2="67.95"/>
      <polyline class="cls-6" points="204.21 79.38 232.64 79.38 232.64 68.19"/>
      <line class="cls-6" x1="171.04" y1="68.22" x2="193.13" y2="68.22"/>
      <line class="cls-6" x1="200.74" y1="68.22" x2="204.21" y2="68.22"/>
      <polyline class="cls-6" points="203.91 89.01 158.37 89.01 158.37 92.93"/>
      <line class="cls-10" x1="158.37" y1="88.65" x2="158.37" y2="9.53"/>
      <line class="cls-10" x1="175.9" y1="52.61" x2="158.37" y2="52.61"/>
      <line class="cls-10" x1="203.91" y1="52.61" x2="183.51" y2="52.61"/>
      <line class="cls-6" x1="245.97" y1="67.95" x2="286.06" y2="67.95"/>
      <line class="cls-6" x1="245.82" y1="38.93" x2="253.78" y2="38.93"/>
      <line class="cls-6" x1="269" y1="38.93" x2="286.06" y2="38.93"/>
      <line class="cls-10" x1="102.66" y1="9.2" x2="102.66" y2="112.23"/>
      <g>
        <path class="cls-14" d="M238.1,15.08c0,4.2,3.41,7.61,7.61,7.61"/>
        <line class="cls-7" x1="245.7" y1="15.08" x2="238.18" y2="15.08"/>
      </g>
      <g>
        <path class="cls-14" d="M183.51,45c-4.2,0-7.61,3.41-7.61,7.61"/>
        <line class="cls-7" x1="183.51" y1="52.61" x2="183.51" y2="45.08"/>
      </g>
      <g>
        <path class="cls-14" d="M155.08,81.4c-4.2,0-7.61,3.41-7.61,7.61"/>
        <line class="cls-7" x1="155.08" y1="89.01" x2="155.08" y2="81.48"/>
      </g>
      <g>
        <path class="cls-14" d="M200.74,76.11c-4.2,0-7.61-3.41-7.61-7.61"/>
        <line class="cls-7" x1="200.74" y1="68.51" x2="200.74" y2="76.03"/>
      </g>
      <g>
        <path class="cls-14" d="M211.52,57.96c0,4.2-3.41,7.61-7.61,7.61"/>
        <line class="cls-7" x1="203.91" y1="57.96" x2="211.44" y2="57.96"/>
      </g>
      <g>
        <path class="cls-14" d="M178.71,57.96c0,4.2-3.41,7.61-7.61,7.61"/>
        <line class="cls-7" x1="171.1" y1="57.96" x2="178.63" y2="57.96"/>
      </g>
      <g>
        <path class="cls-14" d="M293.67,50.36c0,4.2-3.41,7.61-7.61,7.61"/>
        <line class="cls-7" x1="286.06" y1="50.36" x2="293.59" y2="50.36"/>
      </g>
      <g>
        <path class="cls-14" d="M293.67,74.95c0,4.2-3.41,7.61-7.61,7.61"/>
        <line class="cls-7" x1="286.06" y1="74.95" x2="293.59" y2="74.95"/>
      </g>
      <g>
        <path class="cls-14" d="M211.52,93.77c0,4.2-3.41,7.61-7.61,7.61"/>
        <line class="cls-7" x1="203.91" y1="93.77" x2="211.44" y2="93.77"/>
      </g>
      <g>
        <path class="cls-14" d="M136.67,92.93c0,4.2-3.41,7.61-7.61,7.61"/>
        <line class="cls-7" x1="136.59" y1="92.93" x2="129.07" y2="92.93"/>
      </g>
      <path class="cls-6" d="M193.97,78.61h-22.93"/>
      <g>
        <path class="cls-14" d="M236.43,75.84c4.2,0,7.61-3.41,7.61-7.61"/>
        <line class="cls-7" x1="236.43" y1="68.23" x2="236.43" y2="75.76"/>
      </g>
      <g>
        <path class="cls-14" d="M253.78,46.53c4.2,0,7.61-3.41,7.61-7.61"/>
        <line class="cls-7" x1="253.78" y1="38.93" x2="253.78" y2="46.45"/>
      </g>
      <g>
        <path class="cls-14" d="M228.9,75.8c-4.2,0-7.61-3.41-7.61-7.61"/>
        <line class="cls-7" x1="228.9" y1="68.19" x2="228.9" y2="75.72"/>
      </g>
      <g>
        <path class="cls-14" d="M95.47,15.76c-4.2,0-7.61-3.41-7.61-7.61"/>
        <line class="cls-7" x1="95.47" y1="8.15" x2="95.47" y2="15.68"/>
      </g>
      <g>
        <path class="cls-14" d="M269,46.53c-4.2,0-7.61-3.41-7.61-7.61"/>
        <line class="cls-7" x1="269" y1="38.93" x2="269" y2="46.45"/>
      </g>
      <g>
        <path class="cls-14" d="M232.7.92c-4.2,0-7.61,3.41-7.61,7.61"/>
        <line class="cls-7" x1="232.7" y1="8.53" x2="232.7" y2="1"/>
      </g>
      <g>
        <path class="cls-14" d="M217.49.92c4.2,0,7.61,3.41,7.61,7.61"/>
        <line class="cls-7" x1="217.49" y1="8.53" x2="217.49" y2="1"/>
      </g>
      <g>
        <path class="cls-14" d="M297.15,8.53c0-4.2,3.41-7.61,7.61-7.61"/>
        <line class="cls-7" x1="304.75" y1="8.53" x2="304.75" y2="1"/>
      </g>
      <g>
        <path class="cls-14" d="M313.46,112.23c0,4.2,3.41,7.61,7.61,7.61"/>
        <line class="cls-7" x1="321.07" y1="112.23" x2="321.07" y2="119.76"/>
      </g>
      <g>
        <path class="cls-14" d="M136.67.92c-4.2,0-7.61,3.41-7.61,7.61"/>
        <line class="cls-7" x1="136.67" y1="8.53" x2="136.67" y2="1"/>
      </g>
      <g>
        <path class="cls-14" d="M121.46.92c4.2,0,7.61,3.41,7.61,7.61"/>
        <line class="cls-7" x1="121.46" y1="8.53" x2="121.46" y2="1"/>
      </g>
      <line class="cls-6" x1="203.91" y1="65.57" x2="203.91" y2="93.18"/>
      <line class="cls-6" x1="203.91" y1="101.38" x2="203.91" y2="112.23"/>
      <line class="cls-10" x1="158.37" y1="89.01" x2="155.08" y2="89.01"/>
      <line class="cls-10" x1="147.47" y1="89.01" x2="102.66" y2="89.01"/>
      <g>
        <path class="cls-14" d="M155.08,60.77c-4.2,0-7.61,3.41-7.61,7.61"/>
        <line class="cls-7" x1="155.08" y1="68.37" x2="155.08" y2="60.85"/>
      </g>
      <line class="cls-10" x1="158.37" y1="68.37" x2="155.08" y2="68.37"/>
      <line class="cls-10" x1="147.47" y1="68.37" x2="102.66" y2="68.37"/>
      <line class="cls-10" x1="129.07" y1="111.98" x2="129.07" y2="101.13"/>
      <line class="cls-10" x1="129.07" y1="92.93" x2="129.07" y2="89.24"/>
      <g>
        <path class="cls-14" d="M136.67,72.98c0,4.2-3.41,7.61-7.61,7.61"/>
        <line class="cls-7" x1="136.59" y1="72.98" x2="129.07" y2="72.98"/>
      </g>
      <line class="cls-10" x1="129.07" y1="92.02" x2="129.07" y2="81.18"/>
      <line class="cls-10" x1="129.07" y1="72.98" x2="129.07" y2="69.28"/>
      <g>
        <path class="cls-14" d="M165.98,92.93c0,4.2-3.41,7.61-7.61,7.61"/>
        <line class="cls-7" x1="165.9" y1="92.93" x2="158.37" y2="92.93"/>
      </g>
      <line class="cls-10" x1="158.37" y1="111.98" x2="158.37" y2="101.13"/>
      <line class="cls-10" x1="217.49" y1="8.83" x2="136.67" y2="8.83"/>
      <line class="cls-10" x1="121.46" y1="8.83" x2="62.69" y2="8.83"/>
      <polyline class="cls-10" points="67.49 112.23 272.57 112.23 286.32 112.23"/>
      <polyline class="cls-3" points="304.75 8.83 328.33 8.83 328.33 112.23 323.31 112.23"/>
      <line class="cls-10" x1="286.32" y1="8.83" x2="297.13" y2="8.83"/>
      <path class="cls-10" d="M52.9,9.2v47.7"/>
      <line class="cls-10" x1="102.66" y1="68.43" x2="102.66" y2="112.45"/>
      <line class="cls-3" x1="313.46" y1="112.45" x2="286.32" y2="112.45"/>
    </g>
    <g id="Spots">
      <circle id="oistersroom" class="cls-17" cx="130.83" cy="39.9" r="5"/>
      <circle id="otherkitchen" class="cls-17" cx="245.82" cy="92.02" r="5"/>
      <circle id="cellar" class="cls-17" cx="182.09" cy="100.54" r="5"/>
      <circle id="dungeon" class="cls-17" cx="146.2" cy="100.54" r="5"/>
      <circle id="dungeontoilet" class="cls-17" cx="117.38" cy="100.54" r="5"/>
      <circle id="oisterstoilet" class="cls-17" cx="117.38" cy="78.61" r="5"/>
      <circle id="walrusroom" class="cls-17" cx="181.14" cy="28.9" r="5"/>
      <circle id="otherlivingroom" class="cls-17" cx="225.09" cy="36.59" r="5"/>
      <circle id="tweedledeeroom" class="cls-17" cx="265.19" cy="22.69" r="5"/>
      <circle id="bbq" class="cls-17" cx="307.58" cy="93.77" r="5"/>
      <circle id="bbqchill" class="cls-17" cx="307.58" cy="33.75" r="5"/>
      <circle id="apartment" class="cls-17" cx="83.98" cy="39.9" r="5"/>
    </g>
  </g>
  <g id="Floor1" style="display:none;">
    <g>
      <rect class="cls-13" x="286.32" y="8.91" width="42.01" height="103.4"/>
      <rect class="cls-3" x=".5" y="8.91" width="62.19" height="174.2"/>
      <polyline class="cls-3" points="62.69 183.11 328.33 183.11 328.33 112.31"/>
      <line class="cls-9" x1="52.9" y1="12.61" x2="62.69" y2="12.61"/>
      <line class="cls-9" x1="52.9" y1="16.61" x2="62.69" y2="16.61"/>
      <line class="cls-9" x1="52.9" y1="20.61" x2="62.69" y2="20.61"/>
      <line class="cls-9" x1="52.9" y1="24.61" x2="62.69" y2="24.61"/>
      <line class="cls-9" x1="52.9" y1="28.61" x2="62.69" y2="28.61"/>
      <line class="cls-9" x1="52.9" y1="32.61" x2="62.69" y2="32.61"/>
      <line class="cls-9" x1="52.9" y1="36.61" x2="62.69" y2="36.61"/>
      <line class="cls-9" x1="52.9" y1="40.61" x2="62.69" y2="40.61"/>
      <line class="cls-9" x1="52.9" y1="44.61" x2="62.69" y2="44.61"/>
      <line class="cls-9" x1="52.9" y1="48.61" x2="62.69" y2="48.61"/>
      <line class="cls-9" x1="52.9" y1="52.61" x2="62.69" y2="52.61"/>
      <line class="cls-9" x1="52.9" y1="56.61" x2="62.69" y2="56.61"/>
      <path class="cls-10" d="M52.9,8.91v47.7"/>
      <line class="cls-14" x1="121.16" y1="8.91" x2="121.16" y2="22.64"/>
      <line class="cls-14" x1="125.39" y1="8.91" x2="125.39" y2="22.64"/>
      <line class="cls-14" x1="116.94" y1="8.91" x2="116.94" y2="22.64"/>
      <line class="cls-14" x1="116.94" y1="22.64" x2="103.32" y2="22.64"/>
      <line class="cls-14" x1="116.94" y1="27.43" x2="103.32" y2="27.43"/>
      <line class="cls-14" x1="116.94" y1="32.22" x2="103.32" y2="32.22"/>
      <line class="cls-14" x1="116.94" y1="37.01" x2="103.32" y2="37.01"/>
      <g>
        <path class="cls-14" d="M84.05,119.92c-4.2,0-7.61-3.41-7.61-7.61"/>
        <line class="cls-16" x1="84.05" y1="112.31" x2="84.05" y2="119.84"/>
      </g>
      <g>
        <path class="cls-14" d="M68.44,119.92c4.2,0,7.61-3.41,7.61-7.61"/>
        <line class="cls-16" x1="68.44" y1="119.84" x2="68.44" y2="112.31"/>
      </g>
      <line class="cls-9" x1="190.91" y1="68.59" x2="190.91" y2="89.09"/>
      <line class="cls-9" x1="186.91" y1="68.59" x2="186.91" y2="89.09"/>
      <line class="cls-9" x1="182.91" y1="68.59" x2="182.91" y2="89.09"/>
      <line class="cls-9" x1="178.91" y1="68.59" x2="178.91" y2="89.09"/>
      <line class="cls-9" x1="174.91" y1="68.59" x2="174.91" y2="89.09"/>
      <polyline class="cls-10" points="248.94 112.31 286.32 112.31 286.32 8.91 62.69 8.91 62.69 112.31 67.49 112.31"/>
      <line class="cls-10" x1="83.54" y1="112.31" x2="241.34" y2="112.31"/>
      <line class="cls-10" x1="203.91" y1="9.61" x2="203.91" y2="58.04"/>
      <line class="cls-10" x1="245.7" y1="9.61" x2="245.7" y2="68.03"/>
      <line class="cls-10" x1="254.1" y1="68.37" x2="254.1" y2="112.04"/>
      <line class="cls-10" x1="236.35" y1="68.3" x2="236.35" y2="112.04"/>
      <line class="cls-10" x1="171.04" y1="68.3" x2="171.04" y2="89.09"/>
      <line class="cls-10" x1="204.21" y1="68.3" x2="213.08" y2="68.3"/>
      <line class="cls-10" x1="228.68" y1="68.03" x2="236.35" y2="68.03"/>
      <line class="cls-10" x1="171.04" y1="68.3" x2="193.13" y2="68.3"/>
      <line class="cls-10" x1="200.74" y1="68.3" x2="204.21" y2="68.3"/>
      <line class="cls-10" x1="171.04" y1="89.09" x2="203.91" y2="89.09"/>
      <polyline class="cls-10" points="165.77 55.69 163.37 55.69 163.37 8.61"/>
      <line class="cls-10" x1="203.91" y1="55.69" x2="173.51" y2="55.69"/>
      <line class="cls-10" x1="245.97" y1="68.3" x2="286.53" y2="68.3"/>
      <line class="cls-10" x1="254.26" y1="89.82" x2="286.06" y2="89.82"/>
      <line class="cls-10" x1="245.82" y1="39.01" x2="286.06" y2="39.01"/>
      <polyline class="cls-10" points="258.27 112.24 258.27 129.66 231.7 129.66 231.7 112.31"/>
      <path class="cls-10" d="M233.78,129.75h22.17v3.26c0,3.17-2.57,5.75-5.75,5.75h-10.68c-3.17,0-5.75-2.57-5.75-5.75v-3.26h0Z"/>
      <path class="cls-10" d="M236.34,129.75h16.89v2.63c0,2.04-1.66,3.7-3.7,3.7h-9.48c-2.04,0-3.7-1.66-3.7-3.7v-2.63h0Z"/>
      <path class="cls-10" d="M238.88,129.75h11.68v2.32c0,.76-.62,1.38-1.38,1.38h-8.92c-.76,0-1.38-.62-1.38-1.38v-2.32h0Z"/>
      <line class="cls-10" x1="102.66" y1="9.28" x2="102.66" y2="54.89"/>
      <g>
        <path class="cls-14" d="M110.27,56.69c0,4.2-3.41,7.61-7.61,7.61"/>
        <line class="cls-16" x1="102.66" y1="56.69" x2="110.19" y2="56.69"/>
      </g>
      <g>
        <path class="cls-14" d="M155.82,56.69c0,4.2,3.41,7.61,7.61,7.61"/>
        <line class="cls-16" x1="163.43" y1="56.69" x2="155.9" y2="56.69"/>
      </g>
      <g>
        <path class="cls-14" d="M173.51,48.08c-4.2,0-7.61,3.41-7.61,7.61"/>
        <line class="cls-16" x1="173.51" y1="55.69" x2="173.51" y2="48.16"/>
      </g>
      <g>
        <path class="cls-14" d="M171.04,96.89c-4.2,0-7.61-3.41-7.61-7.61"/>
        <line class="cls-16" x1="171.04" y1="89.29" x2="171.04" y2="96.81"/>
      </g>
      <g>
        <path class="cls-14" d="M200.74,76.19c-4.2,0-7.61-3.41-7.61-7.61"/>
        <line class="cls-16" x1="200.74" y1="68.59" x2="200.74" y2="76.11"/>
      </g>
      <g>
        <path class="cls-14" d="M211.52,58.04c0,4.2-3.41,7.61-7.61,7.61"/>
        <line class="cls-16" x1="203.91" y1="58.04" x2="211.44" y2="58.04"/>
      </g>
      <g>
        <path class="cls-14" d="M261.83,93.09c0,4.2-3.41,7.61-7.61,7.61"/>
        <line class="cls-16" x1="254.23" y1="93.09" x2="261.75" y2="93.09"/>
      </g>
      <g>
        <path class="cls-14" d="M228.68,75.92c-4.2,0-7.61-3.41-7.61-7.61"/>
        <line class="cls-16" x1="228.68" y1="68.31" x2="228.68" y2="75.84"/>
      </g>
      <g>
        <path class="cls-14" d="M241.34,104.58c4.2,0,7.61,3.41,7.61,7.61"/>
        <line class="cls-16" x1="241.34" y1="112.19" x2="241.34" y2="104.66"/>
      </g>
      <g>
        <path class="cls-14" d="M261.87,86.64c0-4.2-3.41-7.61-7.61-7.61"/>
        <line class="cls-16" x1="254.27" y1="86.64" x2="261.79" y2="86.64"/>
      </g>
      <line class="cls-10" x1="102.66" y1="68.3" x2="102.66" y2="64.3"/>
      <path class="cls-10" d="M193.97,78.69h-22.93"/>
      <g>
        <path class="cls-14" d="M213.08,75.92c4.2,0,7.61-3.41,7.61-7.61"/>
        <line class="cls-16" x1="213.08" y1="68.31" x2="213.08" y2="75.84"/>
      </g>
      <line class="cls-10" x1="203.91" y1="65.65" x2="203.91" y2="111.81"/>
      <polyline class="cls-10" points="125.39 22.64 116.94 22.64 116.94 41.93 103.32 41.93"/>
      <circle class="cls-10" cx="286.53" cy="143.76" r="7.06"/>
      <g>
        <path class="cls-12" d="M255.94,183.11s-.06-.17-.15-.47"/>
        <path class="cls-5" d="M254.86,178.7c-.94-5.44-1.07-14.48,7.02-18.51,11.97-5.97,21.77,3.48,31.79-3.48s10.02-15.17,7.28-20.26c-2.74-5.09-9.23-6.79-9.23-6.79h-60.02l-65.74.08"/>
        <polyline class="cls-12" points="163.93 129.75 163.43 129.75 163.43 129.25"/>
        <line class="cls-4" x1="163.42" y1="125.79" x2="163.38" y2="114.54"/>
        <line class="cls-12" x1="163.38" y1="112.81" x2="163.37" y2="112.31"/>
      </g>
      <g>
        <path class="cls-12" d="M214.66,183.11s.14-.12.38-.32"/>
        <path class="cls-15" d="M217.75,179.87c1.19-1.68,1.71-3.53-.87-4.27-5.21-1.49-12.92-7.46-25.97-4.48-13.06,2.98-40.86,7.46-54.31,7.46-9.4,0-16.52,2.2-19.95,3.53"/>
        <path class="cls-12" d="M114.8,182.89c-.29.14-.45.21-.45.21"/>
      </g>
      <path class="cls-1" d="M202.48,152.38s-7.06-4.69-17.68-4.67-15.27-.64-19.59,4.67c-4.32,5.31.04,9.96,5.83,9.96s10.01-3.98,15.87-2.66,15.47,3.32,17.31-.66-1.74-6.64-1.74-6.64Z"/>
      <path class="cls-2" d="M113.44,141.7s-11.29,3.73-6.31,12.7c4.98,8.96,7.64,11.95,16.93,12.95,9.3,1,12.62-11.29,17.26-9.3,4.65,1.99,11.62-1.35,13.28-3.5,1.66-2.15-.05-10.47-5.5-10.79-5.45-.32-14.59,7.33-20.65,5-6.05-2.33-8.05-8.8-15.02-7.06Z"/>
      <g>
        <path class="cls-12" d="M110.27,112.31s.05.17.15.47"/>
        <path class="cls-11" d="M111.79,116.43c2.55,6.04,8.29,16.45,17.28,15.17,12.57-1.79,12.45-9.1,19.15-8.1,6.7,1,6.31,13.21,10.16,12.58,3.46-.57,11.22-.18,16.9-4.66"/>
        <path class="cls-12" d="M176.74,130.11c.12-.12.23-.24.34-.36"/>
      </g>
      <g class="cls-18">
        <path class="cls-14" d="M313.46,113.51c0,4.2,3.41,7.61,7.61,7.61"/>
        <line class="cls-16" x1="321.07" y1="113.51" x2="321.07" y2="121.04"/>
      </g>
      <polyline class="cls-10" points="163.43 64.3 163.43 68.3 102.66 68.3 102.66 112.31"/>
      <line class="cls-10" x1="163.43" y1="112.66" x2="163.43" y2="68.3"/>
    </g>
    <g id="Spots-2" data-name="Spots">
      <circle id="kitchen" class="cls-17" cx="83.25" cy="60.61" r="5"/>
      <circle id="madhatter" class="cls-17" cx="184.1" cy="29.61" r="5"/>
      <circle id="dinningroom" class="cls-17" cx="138.23" cy="35.12" r="5"/>
      <circle id="livingroom" class="cls-17" cx="224.88" cy="30.08" r="5"/>
      <circle id="cinemaroom" class="cls-17" cx="220.68" cy="90.48" r="5"/>
      <circle id="toilet" class="cls-17" cx="271.78" cy="79.03" r="5"/>
      <circle id="cornerroom" class="cls-17" cx="271.78" cy="101.34" r="5"/>
      <circle id="mainentrance" class="cls-17" cx="244.72" cy="125" r="5"/>
      <circle id="gardenspot" class="cls-17" cx="98.78" cy="173.65" r="5"/>
      <circle id="gardentable" class="cls-17" cx="286.53" cy="143.76" r="5"/>
      <circle id="patio" class="cls-17" cx="31.6" cy="40.61" r="5"/>
      <circle id="trianglepool" class="cls-17" cx="16.22" cy="145.96" r="5"/>
    </g>
  </g>
  <g id="Floor2" style="display:none;">
    <g>
      <line class="cls-14" x1="121.16" y1="8.84" x2="121.16" y2="22.58"/>
      <line class="cls-14" x1="125.39" y1="8.84" x2="125.39" y2="22.58"/>
      <line class="cls-14" x1="116.94" y1="8.84" x2="116.94" y2="22.58"/>
      <line class="cls-14" x1="116.94" y1="22.58" x2="103.32" y2="22.58"/>
      <line class="cls-14" x1="116.94" y1="27.37" x2="103.32" y2="27.37"/>
      <line class="cls-14" x1="116.94" y1="32.15" x2="103.32" y2="32.15"/>
      <line class="cls-14" x1="116.94" y1="36.94" x2="103.32" y2="36.94"/>
      <g>
        <path class="cls-14" d="M94.05,96.63c-4.2,0-7.61-3.41-7.61-7.61"/>
        <line class="cls-7" x1="94.05" y1="89.03" x2="94.05" y2="96.55"/>
      </g>
      <g>
        <path class="cls-14" d="M78.44,96.63c4.2,0,7.61-3.41,7.61-7.61"/>
        <line class="cls-7" x1="78.44" y1="89.03" x2="78.44" y2="96.55"/>
      </g>
      <line class="cls-9" x1="190.91" y1="68.52" x2="190.91" y2="89.03"/>
      <line class="cls-9" x1="186.91" y1="68.52" x2="186.91" y2="89.03"/>
      <line class="cls-9" x1="182.91" y1="68.52" x2="182.91" y2="89.03"/>
      <line class="cls-9" x1="178.91" y1="68.52" x2="178.91" y2="89.03"/>
      <line class="cls-9" x1="174.91" y1="68.52" x2="174.91" y2="89.03"/>
      <polyline class="cls-10" points="67.49 112.25 286.32 112.25 286.32 8.84 62.69 8.84 62.69 112.25 67.49 112.25"/>
      <line class="cls-6" x1="203.91" y1="9.54" x2="203.91" y2="78.04"/>
      <line class="cls-6" x1="203.91" y1="85.64" x2="203.91" y2="89.03"/>
      <line class="cls-6" x1="245.7" y1="9.54" x2="245.7" y2="78.04"/>
      <line class="cls-6" x1="171.04" y1="68.23" x2="171.04" y2="89.03"/>
      <line class="cls-6" x1="204.21" y1="74.23" x2="245.7" y2="74.23"/>
      <line class="cls-6" x1="171.04" y1="68.23" x2="193.13" y2="68.23"/>
      <line class="cls-6" x1="200.74" y1="68.23" x2="203.91" y2="68.23"/>
      <line class="cls-6" x1="221.17" y1="89.03" x2="286.32" y2="89.03"/>
      <line class="cls-6" x1="165.9" y1="88.95" x2="213.56" y2="88.95"/>
      <line class="cls-10" x1="163.37" y1="55.63" x2="163.37" y2="8.54"/>
      <polyline class="cls-10" points="102.66 9.21 102.66 54.82 141.41 54.82 141.41 22.58 125.39 22.58 116.94 22.58 116.94 41.87 103.32 41.87"/>
      <g>
        <path class="cls-14" d="M155.82,56.63c0,4.2,3.41,7.61,7.61,7.61"/>
        <line class="cls-7" x1="163.43" y1="56.63" x2="155.9" y2="56.63"/>
      </g>
      <g>
        <path class="cls-14" d="M200.74,76.13c-4.2,0-7.61-3.41-7.61-7.61"/>
        <line class="cls-7" x1="200.74" y1="68.52" x2="200.74" y2="76.05"/>
      </g>
      <g>
        <path class="cls-14" d="M221.17,96.55c-4.2,0-7.61-3.41-7.61-7.61"/>
        <line class="cls-7" x1="221.17" y1="88.95" x2="221.17" y2="96.47"/>
      </g>
      <g>
        <path class="cls-14" d="M211.52,78.04c0,4.2-3.41,7.61-7.61,7.61"/>
        <line class="cls-7" x1="203.91" y1="78.04" x2="211.44" y2="78.04"/>
      </g>
      <line class="cls-6" x1="245.7" y1="85.64" x2="245.7" y2="89.03"/>
      <g>
        <path class="cls-14" d="M253.31,78.04c0,4.2-3.41,7.61-7.61,7.61"/>
        <line class="cls-7" x1="245.7" y1="78.04" x2="253.23" y2="78.04"/>
      </g>
      <line class="cls-6" x1="163.43" y1="112.25" x2="163.43" y2="64.23"/>
      <path class="cls-6" d="M193.97,78.63h-22.93"/>
      <line class="cls-10" x1="62.69" y1="89.03" x2="78.44" y2="89.03"/>
      <line class="cls-10" x1="94.05" y1="89.03" x2="171.04" y2="89.03"/>
    </g>
    <g id="Spots-3" data-name="Spots">
      <circle id="canterpillarroom1" class="cls-17" cx="269.66" cy="100.44" r="5"/>
      <circle id="canterpillarroom2" class="cls-17" cx="177.83" cy="100.44" r="5"/>
      <circle id="coworkingroom2" class="cls-17" cx="140.23" cy="74.23" r="5"/>
      <circle id="balcony" class="cls-17" cx="141.41" cy="100.44" r="5"/>
      <circle id="coworkingroom1" class="cls-17" cx="78.76" cy="28.42" r="5"/>
      <circle id="scaryroom" class="cls-17" cx="266.12" cy="43.79" r="5"/>
    </g>
  </g>
</svg>