<svg width="64" height="64" viewBox="0 0 64 64" fill="none" xmlns="http://www.w3.org/2000/svg">
<path d="M48 17.8093C48 20 44.9938 21.6343 42.6667 18.6667C41.3333 16.9664 41.8065 11.8191 48 11.9237C54.1935 12.0283 55.914 17.0245 56 19.5095C56 21.1662 56 27.5139 56 39.6512C56 51.7886 47.3978 55.6076 43.0968 56C40.7742 56 33.3419 56 22.1935 56C11.0452 56 8.08602 47.3679 8 43.0518C8 41.3515 8 34.9951 8 23.1717C8 11.3482 15.914 8.13079 19.871 8H38.7097C32.5591 10.7466 19.4933 16.1799 19.871 29.4496C20.2581 43.0518 33.087 46.5721 38.7097 40.9591C44.3323 35.3462 41.3333 23.1717 32 23.1717" stroke="#EBE9DF" stroke-width="3" stroke-linecap="round" stroke-linejoin="round"/>
</svg>
