<?xml version="1.0" encoding="UTF-8"?>
<svg id="uuid-39ff0a89-09bd-4342-bf6c-4fdeef02d699" data-name="Logo" xmlns="http://www.w3.org/2000/svg" viewBox="0 0 147.26 198.11">
  <defs>
    <style>
      .lineStyle {
        stroke-width: 3px;
          fill: none;
        stroke: #ffffff;
        stroke-linecap: round;
        stroke-linejoin: round;
      }

    
    </style>
  </defs>
  <path id="LogoObj" data-name="Logo" class="lineStyle" d="M77.32,135.43s-.66.54-1.66.61c-4.21.31-15.45,1-18.25-.12-.36-2.5,1.35-10.5,1.35-15.24s-.63-37.4-.63-37.4c0,0-6.63-1.1-16.25,0s-10.89,2.52-10.89,2.52c0,0-.32,15.31,0,20.04s2.52,24.62,2.21,29.98c-3.31.16-13.89-.47-19.25-.63-3.54-.1-7.69-.48-10.11-.73-1.15-.12-2.02-1.1-2.01-2.26.07-5.18.22-18.87-.03-24.95-.29-7.01-.75-27.13-.07-34.22.08-.87.5-1.67,1.17-2.23,1.47-1.23,4.38-3.89,7.27-7.89,4.1-5.68,16.1-22.22,20.36-27.43l11.36-13.76s17.52,17.36,18.62,18.94.95,11.2-4.58,16.57c-5.52,5.37-18.58,10.51-22.72-.16-3.63-9.35,2.9-15.26,8.35-13.84,11.87,3.77,12.46,14.24,17.53,20.31,5.54,6.63,13.12,10.39,16.43,19.22s5.5,24.02,5.82,29.7,1.33,20.73,3.16,22.88c1.68,1.97,4.89,2.21,8.84,2.37s11.91.36,16.07.62,13.05,1.32,17.83.85c6.21-.62,8.67-2.6,13.53-2.72.61-.02,1.13-.48,1.17-1.09.9-11.29-.25-23.99,1.43-46.87.44-5.97,3.65-16.55,2.12-19.78-1.1-2.21-17.57-4.24-22.92-4.75s-13.09-2.02-20.3-1.93-11.19.66-12.47,1.59c-2.55,2.12-1.7,9.51-1.7,9.51,0,0,1.27,33.79,2.04,36.5,1.87,1.53,7.73,3.41,21.31,3.15,9.39-.18,13.92-1.33,15.82-2.03.7-.26,1.14-.95,1.08-1.69-.3-3.59-1.42-14.19-4.17-21.42-1.15-3.01-2.46-4.84-5.01-5.01s-18.42-.17-20.29.34-.85,3.06-.85,3.06c0,0,1.7,11.72,1.78,14.6.08,2.89,1.53,15.12,2.89,15.63s3.84.61,9.53.35,7.19-1.44,8.64-2.97,2.38-7.16,2.38-10.98-1.02-16.72-.76-24.11c.25-7.39.07-16.11-.35-19.93-.25-1.95,1.33-2.49,6.29-2.15,4.13.28,12.4,3.04,16.99,1.59,0,0,2.38-.67-3.91-6.89-5.75-5.69-22.67-22.47-28.28-27.56s-33.53-4.16-33.53-4.16c0,0-17.57.08-24.28.59-6.71.51-5.52,1.27-4.5,2.38s18.25,19.27,19.27,20.54,8.15,9.17,10.1,9.76,12.32,3.12,15.04,1.93-.9-10.53-2.12-20.16c-1.2-9.46-.91-18.18-1.78-23.16-1.2-6.91-1.21-10.73,3.63-9.88s6.93,1.5,10.16,2.05,6.39-.01,7.32,1.09,1.9,8.25,1.9,13.66c0,9.62-1.41,20.89-.76,27.75"/>
  <path id="LettersObj" data-name="Letters" class="lineStyle" d="M3.29,155.28s8.55-8.12,13.67-2.99,4.06,12.61,7.05,18.16l2.99,5.56s2.14-13.25,3.42-13.03c.85,2.14,1.28,9.4,5.56,12.18.21-4.7.64-9.61,3.2-15.38s4.71-7.62,5.77-7.69,7.15,4.42,9.19,10.68c0,0,2.01,5.37.54,8.56s-4.83,4.17-5.89,2.21-1.31-10.64,2.95-17.27c1.55-.49,5.24-2.05,6.87-2.45s3.68-.33,4.58.82.74,2.13.57,3.52,1.23,10.23,2.05,14.81c-.98-5.65-.16-11.13,3.03-14.81s6.06-3.11,6.79-2.21,2.1,3.88,2.48,8.61c.47,5.85.88,7.6,1.86,10.05M93.94,155.98s-3.19-2.55-6.25,0-5.74,12.89-2.81,16.59,9.06-3.7,9.7-6.77.64-18.76.38-20.04-1.02,14.81,2.04,27.83c2.17,2.17,9.32-3.83,9.32-3.83,0,0,6.89-5.36,8.81-14.17-2.43-2.68-5.62-2.04-6.77-.38s-2.68,7.4,3.7,17.87c3.32,5.36,9.57.89,10.34-3.06s.51-11.49,1.53-15.06-1.66,2.55,1.28,9.57,1.28,4.08,3.19,8.04c.64-3.83.77-9.57,3.96-13.53s6.89-4.6,9.83-4.6c1.91.26,2.17,1.79,2.17,1.79M41.11,183.79s-.11,3.19-.08,6.54c.01,1.87.07,3.78.21,5.23M41.03,190.33s4.53.52,9.24.26M50.53,195.83c.13-4.71-.78-12.03-.78-12.03M58.77,183.79c-1.7,1.7-3.4,7.85-.92,10.86s6.15.52,7.59-2.62-.26-6.93-2.22-8.11-4.45-.13-4.45-.13ZM71.46,183.53s-.78,12.03,2.75,11.51,4.84-5.36,3.79-11.38M84.67,195.04c1.57.52,3.01.92,5.23.65s2.88-2.35,1.7-4.84-7.85-1.18-7.06-4.84,5.49-2.62,5.49-2.62M105.86,183.27s-4.71-.26-6.67.26c-.13.13.26,10.46.26,13.08,0,0,4.71-.65,7.06-.39M104.16,189.68s-4.06-.39-4.84.13"/>
</svg>