<svg width="64" height="64" viewBox="0 0 64 64" fill="none" xmlns="http://www.w3.org/2000/svg">
<path d="M12.6716 17.3963C9.82311 20.0818 5.4934 28.9662 10.9625 43.0202L8 56L19.394 51.9718C27.1419 55.3286 42.9795 57.2309 51.9807 43.8035C60.4102 31.2289 54.1747 18.4033 46.1698 12.4729C40.6766 8.40327 30.7196 5.17736 18.1406 11.8015C16.9253 17.2471 16.5683 29.5033 25.3188 37.2016C36.257 46.8246 44.9164 42.125 46.7395 38.7682L39.2195 34.4043L35.4594 37.7611C32.6869 36.7913 26.7772 33.7329 25.3188 29.2571L27.8255 25.9003L24.6352 18.4033C23.8376 18.6271 21.9576 19.3768 20.8182 20.5853" stroke="#EBE9DF" stroke-width="3" stroke-linecap="round" stroke-linejoin="round"/>
</svg>
